<?xml version="1.0" encoding="UTF-8"?>
<!DOCTYPE svg PUBLIC "-//W3C//DTD SVG 1.1//EN" "http://www.w3.org/Graphics/SVG/1.1/DTD/svg11.dtd">
<svg xmlns="http://www.w3.org/2000/svg" version="1.1" width="512px" height="512px" style="shape-rendering:geometricPrecision; text-rendering:geometricPrecision; image-rendering:optimizeQuality; fill-rule:evenodd; clip-rule:evenodd" xmlns:xlink="http://www.w3.org/1999/xlink">
<g><path style="opacity:0.984" fill="#000000" d="M 56.5,55.5 C 189.167,55.3333 321.834,55.5 454.5,56C 466.903,59.4026 475.07,67.236 479,79.5C 479.5,152.833 479.667,226.166 479.5,299.5C 330.167,299.5 180.833,299.5 31.5,299.5C 31.3333,226.166 31.5,152.833 32,79.5C 36.111,67.221 44.2777,59.221 56.5,55.5 Z M 304.5,120.5 C 310.498,121.838 312.998,125.504 312,131.5C 292.333,172.5 272.667,213.5 253,254.5C 248.23,259.798 243.896,259.465 240,253.5C 239.333,251.5 239.333,249.5 240,247.5C 259.394,206.378 279.061,165.378 299,124.5C 300.5,122.531 302.333,121.198 304.5,120.5 Z M 97.5,144.5 C 102.474,144.299 105.64,146.632 107,151.5C 107.333,170.5 107.667,189.5 108,208.5C 111.367,215.685 117.033,219.352 125,219.5C 132.988,219.344 138.654,215.677 142,208.5C 142.035,188.102 142.702,167.769 144,147.5C 148.755,143.241 153.088,143.574 157,148.5C 157.667,168.833 157.667,189.167 157,209.5C 153.73,222.437 145.563,230.27 132.5,233C 113.062,236.205 99.8951,228.705 93,210.5C 92.3333,189.833 92.3333,169.167 93,148.5C 94.3968,146.93 95.8968,145.596 97.5,144.5 Z M 172.5,144.5 C 177.543,143.431 181.377,145.097 184,149.5C 189.685,158.884 195.852,167.884 202.5,176.5C 210.328,166.499 217.994,156.332 225.5,146C 230.097,143.46 233.93,144.293 237,148.5C 237.755,151.303 237.422,153.97 236,156.5C 227.588,167.657 219.422,178.99 211.5,190.5C 219.196,201.698 226.696,213.031 234,224.5C 234.169,231.654 230.669,234.487 223.5,233C 215.966,223.433 208.8,213.599 202,203.5C 194.884,213.618 187.384,223.451 179.5,233C 170.989,234.16 167.822,230.66 170,222.5C 177.711,211.578 185.544,200.745 193.5,190C 185.209,177.92 177.043,165.753 169,153.5C 168.481,149.868 169.647,146.868 172.5,144.5 Z M 327.5,144.5 C 331.888,143.943 335.055,145.61 337,149.5C 337.035,169.898 337.702,190.231 339,210.5C 343.077,215.958 348.577,218.958 355.5,219.5C 364.373,219.113 370.206,214.779 373,206.5C 373.333,187.167 373.667,167.833 374,148.5C 378.035,143.636 382.368,143.302 387,147.5C 388.642,167.077 388.975,186.744 388,206.5C 382.632,227.45 369.132,236.283 347.5,233C 333.584,229.989 325.418,221.489 323,207.5C 322.333,188.167 322.333,168.833 323,149.5C 324.025,147.313 325.525,145.646 327.5,144.5 Z M 408.5,144.5 C 412.594,143.705 415.761,145.038 418,148.5C 418.667,175.5 418.667,202.5 418,229.5C 415.019,233.696 411.186,234.529 406.5,232C 405.283,230.352 404.45,228.519 404,226.5C 403.333,201.5 403.333,176.5 404,151.5C 404.53,148.415 406.03,146.082 408.5,144.5 Z"/></g>
<g><path style="opacity:0.981" fill="#000000" d="M 31.5,314.5 C 180.833,314.5 330.167,314.5 479.5,314.5C 479.666,324.506 479.5,334.506 479,344.5C 475.933,356.568 468.433,364.401 456.5,368C 402.205,369.479 347.871,369.979 293.5,369.5C 295.688,382.208 300.855,393.541 309,403.5C 320.704,418.205 334.037,431.205 349,442.5C 351.479,447.704 350.312,451.87 345.5,455C 285.5,455.667 225.5,455.667 165.5,455C 160.465,451.987 159.298,447.82 162,442.5C 179.703,427.798 195.703,411.465 210,393.5C 215.427,386.385 218.593,378.385 219.5,369.5C 164.462,369.979 109.462,369.479 54.5,368C 42.5675,364.401 35.0675,356.568 32,344.5C 31.5002,334.506 31.3335,324.506 31.5,314.5 Z M 235.5,323.5 C 248.171,323.333 260.838,323.5 273.5,324C 279.019,325.504 281.186,329.004 280,334.5C 278.363,336.81 276.196,338.31 273.5,339C 260.833,339.667 248.167,339.667 235.5,339C 228.653,337.134 226.82,332.968 230,326.5C 231.876,325.391 233.709,324.391 235.5,323.5 Z"/></g>
</svg>
