<?xml version="1.0" encoding="UTF-8"?>
<!DOCTYPE svg PUBLIC "-//W3C//DTD SVG 1.1//EN" "http://www.w3.org/Graphics/SVG/1.1/DTD/svg11.dtd">
<svg xmlns="http://www.w3.org/2000/svg" version="1.1" width="512px" height="512px" style="shape-rendering:geometricPrecision; text-rendering:geometricPrecision; image-rendering:optimizeQuality; fill-rule:evenodd; clip-rule:evenodd" xmlns:xlink="http://www.w3.org/1999/xlink">
<g><path style="opacity:0.951" fill="#000000" d="M 136.5,-0.5 C 215.167,-0.5 293.833,-0.5 372.5,-0.5C 386.817,3.65168 395.984,12.985 400,27.5C 400.667,138.833 400.667,250.167 400,361.5C 394.692,368.197 389.692,367.864 385,360.5C 384.5,263.834 384.333,167.167 384.5,70.5C 298.5,70.5 212.5,70.5 126.5,70.5C 126.5,194.167 126.5,317.833 126.5,441.5C 212.498,440.8 298.498,440.466 384.5,440.5C 384.333,423.83 384.5,407.163 385,390.5C 387.695,384.902 391.862,383.402 397.5,386C 398.701,386.903 399.535,388.069 400,389.5C 400.667,420.833 400.667,452.167 400,483.5C 396.079,497.585 387.246,506.918 373.5,511.5C 294.833,511.5 216.167,511.5 137.5,511.5C 123.542,507.707 114.709,498.707 111,484.5C 110.333,332.167 110.333,179.833 111,27.5C 114.169,13.1705 122.669,3.83717 136.5,-0.5 Z M 144.5,14.5 C 217.834,14.3333 291.167,14.5 364.5,15C 374.556,15.7255 381.056,20.8922 384,30.5C 384.5,38.4931 384.666,46.4931 384.5,54.5C 298.5,54.5 212.5,54.5 126.5,54.5C 126.083,45.0854 126.583,35.7521 128,26.5C 131.513,19.6697 137.013,15.6697 144.5,14.5 Z M 253.5,112.5 C 254.873,112.343 256.207,112.51 257.5,113C 284.425,134.38 311.258,155.88 338,177.5C 341.797,185.567 339.297,190.901 330.5,193.5C 328.459,192.764 326.459,191.931 324.5,191C 303.318,174.574 282.318,157.907 261.5,141C 256.931,138.781 252.598,139.114 248.5,142C 227.682,158.907 206.682,175.574 185.5,192C 177.33,194.411 172.33,191.411 170.5,183C 171.495,179.346 173.495,176.346 176.5,174C 202.354,153.636 228.021,133.136 253.5,112.5 Z M 173.5,456.5 C 243.833,456.5 314.167,456.5 384.5,456.5C 384.917,465.915 384.417,475.248 383,484.5C 380.031,489.473 375.864,492.973 370.5,495C 332.204,496.152 293.871,496.652 255.5,496.5C 216.802,496.649 178.135,496.149 139.5,495C 134.08,493.212 130.247,489.712 128,484.5C 126.586,475.582 126.086,466.582 126.5,457.5C 142.342,457.83 158.009,457.496 173.5,456.5 Z"/></g>
<g><path style="opacity:0.886" fill="#000000" d="M 252.5,26.5 C 263.253,26.997 266.753,32.3303 263,42.5C 256.593,48.0294 250.926,47.3628 246,40.5C 244.189,33.7958 246.355,29.1291 252.5,26.5 Z"/></g>
<g><path style="opacity:0.926" fill="#000000" d="M 249.5,96.5 C 255.965,95.697 261.965,96.8637 267.5,100C 292.833,120 318.167,140 343.5,160C 356.859,171.2 359.359,184.366 351,199.5C 342.992,208.331 333.325,210.998 322,207.5C 321.667,221.5 321.333,235.5 321,249.5C 319.827,256.008 316.327,260.842 310.5,264C 290.898,265.63 271.232,265.963 251.5,265C 246.248,261.914 245.248,257.747 248.5,252.5C 249.665,251.416 250.998,250.583 252.5,250C 269.5,249.667 286.5,249.333 303.5,249C 304,248.5 304.5,248 305,247.5C 305.667,230.5 305.667,213.5 305,196.5C 288.644,183.309 272.144,170.309 255.5,157.5C 239.424,170.287 223.257,182.954 207,195.5C 206.333,213.167 206.333,230.833 207,248.5C 212.831,249.121 218.664,249.954 224.5,251C 228.779,256.033 228.446,260.7 223.5,265C 216.833,265.667 210.167,265.667 203.5,265C 197.333,262.833 193.167,258.667 191,252.5C 190.833,237.489 190.333,222.489 189.5,207.5C 174.908,211.452 164.075,206.785 157,193.5C 153.634,184.354 154.634,175.687 160,167.5C 189.157,142.828 218.99,119.161 249.5,96.5 Z M 253.5,112.5 C 228.021,133.136 202.354,153.636 176.5,174C 173.495,176.346 171.495,179.346 170.5,183C 172.33,191.411 177.33,194.411 185.5,192C 206.682,175.574 227.682,158.907 248.5,142C 252.598,139.114 256.931,138.781 261.5,141C 282.318,157.907 303.318,174.574 324.5,191C 326.459,191.931 328.459,192.764 330.5,193.5C 339.297,190.901 341.797,185.567 338,177.5C 311.258,155.88 284.425,134.38 257.5,113C 256.207,112.51 254.873,112.343 253.5,112.5 Z"/></g>
<g><path style="opacity:0.916" fill="#000000" d="M 249.5,308.5 C 260.414,307.266 269.914,310.266 278,317.5C 280.694,324.442 278.361,328.775 271,330.5C 267.176,328.684 263.343,326.851 259.5,325C 249.166,323.417 242.333,327.584 239,337.5C 238.917,343.942 238.251,350.275 237,356.5C 231.58,360.809 226.914,360.142 223,354.5C 218.79,331.216 227.623,315.882 249.5,308.5 Z"/></g>
<g><path style="opacity:0.904" fill="#000000" d="M 251.5,343.5 C 256.742,342.271 260.575,343.937 263,348.5C 263.667,357.5 263.667,366.5 263,375.5C 258,382.167 253,382.167 248,375.5C 247.333,366.5 247.333,357.5 248,348.5C 248.997,346.677 250.164,345.01 251.5,343.5 Z"/></g>
<g><path style="opacity:0.92" fill="#000000" d="M 276.5,351.5 C 281.742,350.271 285.575,351.937 288,356.5C 288.667,366.833 288.667,377.167 288,387.5C 282.516,408.284 269.016,417.117 247.5,414C 234.4,410.566 226.4,402.233 223.5,389C 224.992,382.582 228.992,380.249 235.5,382C 238.545,385.447 241.045,389.28 243,393.5C 251.941,400.406 260.608,400.073 269,392.5C 270.275,390.283 271.275,387.949 272,385.5C 272.333,375.5 272.667,365.5 273,355.5C 274.376,354.295 275.542,352.962 276.5,351.5 Z"/></g>
<g><path style="opacity:0.911" fill="#000000" d="M 239.5,466.5 C 249.839,466.334 260.172,466.5 270.5,467C 275.906,468.98 277.739,472.814 276,478.5C 274.833,479.667 273.667,480.833 272.5,482C 260.833,482.667 249.167,482.667 237.5,482C 233.247,478.58 232.413,474.413 235,469.5C 236.409,468.219 237.909,467.219 239.5,466.5 Z"/></g>
</svg>
