<?xml version="1.0" encoding="UTF-8"?>
<!DOCTYPE svg PUBLIC "-//W3C//DTD SVG 1.1//EN" "http://www.w3.org/Graphics/SVG/1.1/DTD/svg11.dtd">
<svg xmlns="http://www.w3.org/2000/svg" version="1.1" width="512px" height="512px" style="shape-rendering:geometricPrecision; text-rendering:geometricPrecision; image-rendering:optimizeQuality; fill-rule:evenodd; clip-rule:evenodd" xmlns:xlink="http://www.w3.org/1999/xlink">
<g><path style="opacity:0.972" fill="#000000" d="M 355.5,-0.5 C 372.833,-0.5 390.167,-0.5 407.5,-0.5C 410.228,1.06914 412.062,3.40247 413,6.5C 412.898,12.9497 413.731,19.1163 415.5,25C 421.523,27.0956 427.356,29.5956 433,32.5C 437.199,27.9657 441.699,23.799 446.5,20C 450.295,19.1628 453.961,19.4961 457.5,21C 469.03,32.1958 480.197,43.6958 491,55.5C 492.522,59.1738 492.188,62.8405 490,66.5C 486.167,70.3333 482.333,74.1667 478.5,78C 481.571,83.9767 484.238,90.1434 486.5,96.5C 492.472,97.3303 498.472,97.8303 504.5,98C 507.598,98.9383 509.931,100.772 511.5,103.5C 511.5,120.833 511.5,138.167 511.5,155.5C 509.931,158.228 507.598,160.062 504.5,161C 498.472,161.17 492.472,161.67 486.5,162.5C 484.365,168.766 481.699,174.766 478.5,180.5C 482.151,184.652 485.984,188.652 490,192.5C 490.912,194.659 491.745,196.825 492.5,199C 490.617,204.901 487.117,209.734 482,213.5C 481.667,270.833 481.333,328.167 481,385.5C 477.269,402.231 467.103,412.731 450.5,417C 394.501,417.5 338.501,417.667 282.5,417.5C 282.5,428.833 282.5,440.167 282.5,451.5C 293.505,451.333 304.505,451.5 315.5,452C 335.01,458.675 344.01,472.342 342.5,493C 342.333,497.5 342.167,502 342,506.5C 340.293,508.037 338.793,509.704 337.5,511.5C 272.833,511.5 208.167,511.5 143.5,511.5C 138.536,506.864 136.536,501.031 137.5,494C 136.54,472.987 145.873,458.987 165.5,452C 176.161,451.5 186.828,451.333 197.5,451.5C 197.5,440.167 197.5,428.833 197.5,417.5C 141.832,417.667 86.1657,417.5 30.5,417C 14.3186,412.651 3.98523,402.484 -0.5,386.5C -0.5,288.5 -0.5,190.5 -0.5,92.5C 3.98523,76.5156 14.3186,66.3489 30.5,62C 110.833,61.5 191.166,61.3333 271.5,61.5C 271.248,58.6802 271.748,56.0135 273,53.5C 284.196,41.9701 295.696,30.8035 307.5,20C 311.295,19.1628 314.961,19.4961 318.5,21C 322.348,25.0156 326.348,28.8489 330.5,32.5C 336.264,29.2841 342.264,26.6175 348.5,24.5C 349.33,18.5275 349.83,12.5275 350,6.5C 350.938,3.40247 352.772,1.06914 355.5,-0.5 Z M 370.5,19.5 C 377.833,19.5 385.167,19.5 392.5,19.5C 392.334,25.1764 392.501,30.8431 393,36.5C 394.563,39.7284 397.063,41.8951 400.5,43C 404.211,43.8443 407.877,44.8443 411.5,46C 419.317,49.661 427.15,53.161 435,56.5C 436.888,56.204 438.722,55.704 440.5,55C 444,51.5 447.5,48 451,44.5C 456.167,49.6667 461.333,54.8333 466.5,60C 463,63.5 459.5,67 456,70.5C 455.296,72.2784 454.796,74.1118 454.5,76C 460.834,88.3288 466.001,101.162 470,114.5C 471.214,116.049 472.714,117.215 474.5,118C 480.157,118.499 485.824,118.666 491.5,118.5C 491.5,125.833 491.5,133.167 491.5,140.5C 485.824,140.334 480.157,140.501 474.5,141C 472.376,142.122 470.543,143.622 469,145.5C 467.667,150.167 466.333,154.833 465,159.5C 461.472,167.218 457.972,174.885 454.5,182.5C 454.692,184.577 455.192,186.577 456,188.5C 459.5,192 463,195.5 466.5,199C 461.333,204.167 456.167,209.333 451,214.5C 447.5,211 444,207.5 440.5,204C 438.577,203.192 436.577,202.692 434.5,202.5C 428.193,204.63 422.193,207.463 416.5,211C 410.228,213.202 403.895,215.202 397.5,217C 395.622,218.543 394.122,220.376 393,222.5C 392.501,228.157 392.334,233.824 392.5,239.5C 385.167,239.5 377.833,239.5 370.5,239.5C 370.666,233.824 370.499,228.157 370,222.5C 368.878,220.376 367.378,218.543 365.5,217C 360.106,215.535 354.772,213.869 349.5,212C 342.449,208.805 335.449,205.638 328.5,202.5C 326.423,202.692 324.423,203.192 322.5,204C 319,207.5 315.5,211 312,214.5C 306.833,209.333 301.667,204.167 296.5,199C 300,195.5 303.5,192 307,188.5C 307.808,186.577 308.308,184.577 308.5,182.5C 305.362,175.551 302.195,168.551 299,161.5C 297.131,156.228 295.465,150.894 294,145.5C 292.457,143.622 290.624,142.122 288.5,141C 282.843,140.501 277.176,140.334 271.5,140.5C 271.5,133.167 271.5,125.833 271.5,118.5C 277.176,118.666 282.843,118.499 288.5,118C 290.624,116.878 292.457,115.378 294,113.5C 295.465,108.106 297.131,102.772 299,97.5C 302.195,90.4487 305.362,83.4487 308.5,76.5C 308.308,74.4233 307.808,72.4233 307,70.5C 303.5,67 300,63.5 296.5,60C 301.667,54.8333 306.833,49.6667 312,44.5C 315.5,48 319,51.5 322.5,55C 324.423,55.8078 326.423,56.3078 328.5,56.5C 336.115,53.028 343.782,49.528 351.5,46C 356.167,44.6667 360.833,43.3333 365.5,42C 367.378,40.4571 368.878,38.6238 370,36.5C 370.499,30.8431 370.666,25.1764 370.5,19.5 Z M 39.5,81.5 C 120.503,81.1667 201.503,81.5 282.5,82.5C 280.203,87.229 278.203,92.0624 276.5,97C 269.421,97.1145 262.421,97.7811 255.5,99C 253.951,100.214 252.785,101.714 252,103.5C 251.333,120.833 251.333,138.167 252,155.5C 253.26,158.428 255.427,160.261 258.5,161C 264.748,161.188 270.915,161.688 277,162.5C 278.672,168.844 281.172,174.844 284.5,180.5C 280.849,184.652 277.016,188.652 273,192.5C 270.812,196.16 270.478,199.826 272,203.5C 282.803,215.304 293.97,226.804 305.5,238C 309.039,239.504 312.705,239.837 316.5,239C 321.316,235.019 325.982,230.852 330.5,226.5C 336.56,229.463 342.727,232.129 349,234.5C 349.333,240.5 349.667,246.5 350,252.5C 350.346,254.848 351.513,256.681 353.5,258C 362.737,259.141 372.071,259.641 381.5,259.5C 390.929,259.641 400.263,259.141 409.5,258C 411.487,256.681 412.654,254.848 413,252.5C 413.333,246.5 413.667,240.5 414,234.5C 420.438,232.519 426.605,229.852 432.5,226.5C 437.018,230.852 441.684,235.019 446.5,239C 451.757,240.426 456.257,239.259 460,235.5C 460.667,284.5 460.667,333.5 460,382.5C 456.776,391.054 450.609,395.888 441.5,397C 307.5,397.667 173.5,397.667 39.5,397C 30.7176,396.031 24.5509,391.531 21,383.5C 19.6841,374.218 19.1841,364.884 19.5,355.5C 143.834,355.667 268.167,355.5 392.5,355C 401.06,352.375 403.56,346.875 400,338.5C 398.786,336.951 397.286,335.785 395.5,335C 270.167,334.5 144.834,334.333 19.5,334.5C 19.5,325.167 19.5,315.833 19.5,306.5C 46.5021,306.667 73.5021,306.5 100.5,306C 106.864,301.66 108.031,296.16 104,289.5C 103.097,288.299 101.931,287.465 100.5,287C 73.5021,286.5 46.5021,286.333 19.5,286.5C 19.3333,224.832 19.5,163.166 20,101.5C 21.3448,89.6565 27.8448,82.9898 39.5,81.5 Z M 372.5,88.5 C 397.675,85.9919 414.175,96.6585 422,120.5C 424.994,145.694 414.494,162.194 390.5,170C 365.306,172.994 348.806,162.494 341,138.5C 338.127,113.219 348.627,96.5524 372.5,88.5 Z M 156.5,137.5 C 160.833,137.5 165.167,137.5 169.5,137.5C 169.335,141.182 169.501,144.848 170,148.5C 170.792,150.587 171.959,152.421 173.5,154C 181.282,156.722 188.282,160.722 194.5,166C 200.357,167.256 205.691,166.089 210.5,162.5C 213.003,165.502 215.003,168.835 216.5,172.5C 213.792,174.611 210.959,176.611 208,178.5C 206.448,180.768 205.615,183.268 205.5,186C 206.451,194.497 206.618,202.997 206,211.5C 208.387,215.553 211.72,218.553 216,220.5C 214.686,224.142 213.019,227.809 211,231.5C 206.42,227.783 201.253,226.283 195.5,227C 189.253,232.232 182.253,236.232 174.5,239C 169.904,243.484 168.237,248.984 169.5,255.5C 165.167,255.5 160.833,255.5 156.5,255.5C 156.666,251.486 156.499,247.486 156,243.5C 155.535,242.069 154.701,240.903 153.5,240C 145.34,236.5 137.674,232.167 130.5,227C 124.929,226.031 120.095,227.531 116,231.5C 113.457,228.251 111.291,224.751 109.5,221C 112.078,218.793 114.911,216.96 118,215.5C 119.872,212.795 120.705,209.795 120.5,206.5C 119.667,198.173 119.5,189.84 120,181.5C 117.233,177.692 113.733,174.692 109.5,172.5C 111.429,168.967 113.595,165.633 116,162.5C 120.58,166.123 125.746,167.29 131.5,166C 137.747,160.768 144.747,156.768 152.5,154C 154.049,152.786 155.215,151.286 156,149.5C 156.499,145.514 156.666,141.514 156.5,137.5 Z M 218.5,417.5 C 232.833,417.5 247.167,417.5 261.5,417.5C 261.5,428.833 261.5,440.167 261.5,451.5C 247.167,451.5 232.833,451.5 218.5,451.5C 218.5,440.167 218.5,428.833 218.5,417.5 Z M 174.5,471.5 C 218.501,471.333 262.501,471.5 306.5,472C 317.696,473.7 322.696,480.2 321.5,491.5C 267.167,491.5 212.833,491.5 158.5,491.5C 158.405,480.28 163.739,473.613 174.5,471.5 Z"/></g>
<g><path style="opacity:0.943" fill="#000000" d="M 370.5,67.5 C 408.958,64.4898 433.125,81.4898 443,118.5C 446.494,156.982 429.661,181.149 392.5,191C 354.018,194.494 329.851,177.661 320,140.5C 316.709,101.996 333.542,77.6627 370.5,67.5 Z M 372.5,88.5 C 348.627,96.5524 338.127,113.219 341,138.5C 348.806,162.494 365.306,172.994 390.5,170C 414.494,162.194 424.994,145.694 422,120.5C 414.175,96.6585 397.675,85.9919 372.5,88.5 Z"/></g>
<g><path style="opacity:0.948" fill="#000000" d="M 141.5,117.5 C 155.837,117.333 170.171,117.5 184.5,118C 187,119.167 188.833,121 190,123.5C 190.171,128.533 190.671,133.533 191.5,138.5C 194.339,140.42 197.339,142.087 200.5,143.5C 203.673,141.413 207.006,139.579 210.5,138C 214.295,137.163 217.961,137.496 221.5,139C 229.823,150.984 236.823,163.65 242.5,177C 241.745,179.175 240.912,181.341 240,183.5C 236.172,186.415 232.172,189.081 228,191.5C 225.57,199.699 228.403,204.866 236.5,207C 243.103,212.378 243.937,218.545 239,225.5C 233.209,235.586 227.042,245.419 220.5,255C 218.577,255.808 216.577,256.308 214.5,256.5C 209.214,255.107 204.381,252.774 200,249.5C 197,251.5 194,253.5 191,255.5C 190.667,260.167 190.333,264.833 190,269.5C 188.5,272.333 186.333,274.5 183.5,276C 169.098,276.948 154.765,276.615 140.5,275C 138.19,273.363 136.69,271.196 136,268.5C 135.828,263.798 135.328,259.132 134.5,254.5C 131.42,253.211 128.586,251.545 126,249.5C 121.127,254.357 115.293,256.524 108.5,256C 107.167,255.333 105.833,254.667 104.5,254C 97.6214,243.079 91.1214,231.913 85,220.5C 84.1834,217.036 84.5167,213.702 86,210.5C 89.828,207.585 93.828,204.919 98,202.5C 98.8265,198.459 98.6599,194.459 97.5,190.5C 92.2504,188.466 88.0837,185.133 85,180.5C 84.0349,176.218 84.7016,172.218 87,168.5C 92.3995,160.092 97.3995,151.425 102,142.5C 105.699,137.728 110.533,136.228 116.5,138C 119.673,140.087 123.006,141.921 126.5,143.5C 129.005,141.747 131.671,140.247 134.5,139C 135.303,134.586 135.803,130.086 136,125.5C 136.625,121.891 138.458,119.224 141.5,117.5 Z M 156.5,137.5 C 156.666,141.514 156.499,145.514 156,149.5C 155.215,151.286 154.049,152.786 152.5,154C 144.747,156.768 137.747,160.768 131.5,166C 125.746,167.29 120.58,166.123 116,162.5C 113.595,165.633 111.429,168.967 109.5,172.5C 113.733,174.692 117.233,177.692 120,181.5C 119.5,189.84 119.667,198.173 120.5,206.5C 120.705,209.795 119.872,212.795 118,215.5C 114.911,216.96 112.078,218.793 109.5,221C 111.291,224.751 113.457,228.251 116,231.5C 120.095,227.531 124.929,226.031 130.5,227C 137.674,232.167 145.34,236.5 153.5,240C 154.701,240.903 155.535,242.069 156,243.5C 156.499,247.486 156.666,251.486 156.5,255.5C 160.833,255.5 165.167,255.5 169.5,255.5C 168.237,248.984 169.904,243.484 174.5,239C 182.253,236.232 189.253,232.232 195.5,227C 201.253,226.283 206.42,227.783 211,231.5C 213.019,227.809 214.686,224.142 216,220.5C 211.72,218.553 208.387,215.553 206,211.5C 206.618,202.997 206.451,194.497 205.5,186C 205.615,183.268 206.448,180.768 208,178.5C 210.959,176.611 213.792,174.611 216.5,172.5C 215.003,168.835 213.003,165.502 210.5,162.5C 205.691,166.089 200.357,167.256 194.5,166C 188.282,160.722 181.282,156.722 173.5,154C 171.959,152.421 170.792,150.587 170,148.5C 169.501,144.848 169.335,141.182 169.5,137.5C 165.167,137.5 160.833,137.5 156.5,137.5 Z"/></g>
<g><path style="opacity:0.881" fill="#000000" d="M 158.5,186.5 C 169.49,184.992 174.324,189.658 173,200.5C 167.511,208.863 161.177,209.529 154,202.5C 151.172,195.851 152.672,190.518 158.5,186.5 Z"/></g>
<g><path style="opacity:0.901" fill="#000000" d="M 130.5,286.5 C 142.324,284.824 147.158,289.824 145,301.5C 141.345,306.275 136.512,307.775 130.5,306C 122.649,299.522 122.649,293.022 130.5,286.5 Z"/></g>
<g><path style="opacity:0.891" fill="#000000" d="M 426.5,334.5 C 437.49,332.992 442.324,337.658 441,348.5C 436.08,356.064 430.08,357.064 423,351.5C 419.303,344.774 420.469,339.107 426.5,334.5 Z"/></g>
<g><path style="opacity:0.904" fill="#000000" d="M 235.5,364.5 C 247.324,362.824 252.158,367.824 250,379.5C 246.301,384.272 241.467,385.772 235.5,384C 227.649,377.522 227.649,371.022 235.5,364.5 Z"/></g>
</svg>
