<svg version="1.2" xmlns="http://www.w3.org/2000/svg" viewBox="0 0 600 600" width="600" height="600">
	<style>
		.s0 { fill: #323332 } 
		.s1 { fill: #cc0000;stroke: #cc0000 } 
	</style>
	<g>
		<path class="s0" d="m315.5 460.3c-21.3-4.9-38.2-18.6-57.4-46.6-5.7-8.3-12.4-17.9-14.7-21.2-2.4-3.3-8.2-11.8-13.1-19-4.8-7.1-12.5-18.3-17-24.9-4.6-6.6-8.3-12.5-8.3-13.1 0-0.7 6.6-7.5 14.8-15.3 8.1-7.7 18.5-17.9 23.2-22.6l8.5-8.6h10c12.2 0 20.9-1.8 30-6.1 9.2-4.3 18.8-13.8 23.5-23.4 3.4-6.9 3.5-7.2 3.5-19.5 0-12.5 0-12.5-3.6-19-4.1-7.4-10.3-12.8-18.9-16.2-5.5-2.2-5.9-2.2-89.5-2.9-46.2-0.4-85.6-0.7-87.7-0.8-3.5-0.1-3.8-0.5-9.8-10.4-7.9-12.9-18.3-29.6-22.7-36.5-1.9-3-3.3-5.5-3.1-5.7 0.2-0.2 47.2-0.5 104.3-0.7 96.9-0.3 104.5-0.2 111.5 1.5 31.2 7.4 54 24.2 66.3 49 7 14 9.1 22.7 9.1 37.7 0 9.9-0.4 14.3-2.3 21-9 33.5-37.4 61.6-73.4 72.4-8.9 2.7-19 4.6-24.9 4.6-2.1 0-3.8 0.2-3.8 0.4 0 0.3 9.6 14.6 21.3 31.8 37 54.3 59.9 89 60.7 92l0.9 2.8-17.7-0.1c-9.7-0.1-18.6-0.3-19.7-0.6z"/>
		<path class="s0" d="m87.6 438.1c-0.5-0.8 1.2-8 8.5-35.6 4.7-17.5 6.1-22.9 12.4-47 3.6-13.7 7-26.1 7.6-27.5 0.6-1.4 4.1-5.2 7.7-8.4 9.6-8.5 27.5-24.2 43.2-38.1 37.6-33 45.3-39.8 54.9-48l10.5-9 27.4 0.2c15.2 0.2 27.7 0.5 27.9 0.7 0.9 0.8-68.8 70.4-95.9 95.8-15.3 14.3-27.8 26.8-27.8 27.6 0 2-17.7 72.5-21.8 86.7l-0.8 3-26.7 0.3c-15.5 0.1-26.8-0.2-27.1-0.7z"/>
		<path class="s0" d="m393.5 433.8c0.4-2.4 1.5-8.1 2.5-12.8 4-18.5 5.1-24 4.8-24.7-0.2-0.5-15.8-0.8-34.7-0.8h-34.3l-10.4-16.3c-5.7-9-10.4-16.8-10.4-17.2 0-0.5 2.2-3.2 4.8-6.2 2.6-2.9 18.5-21.3 35.2-40.8 16.7-19.5 31.4-36.6 32.6-38 3.8-4.3 23.3-26.8 36.9-42.8l13-15.2h22.6c12.4 0 22.8 0.2 23.1 0.5 0.2 0.3-0.3 4.4-1.3 9.2-1 4.9-3.9 19.6-6.4 32.8-2.5 13.2-5.2 27.2-6 31-0.8 3.9-2.8 14.4-4.5 23.5-1.7 9.1-4 20.9-5 26.2-3.1 15.2-4.3 13.8 11.9 13.8h13.9l-1.9 8.3c-1 4.5-2.8 12-3.9 16.7-1.1 4.7-2.3 9.7-2.6 11.1-0.5 2.4-1.2 2.7-6.6 3.3-3.4 0.3-9.5 0.6-13.7 0.6h-7.6l-1.3 6.3c-0.7 3.4-2.1 11.2-3.2 17.2-1.1 6.1-2.4 12.6-2.8 14.5l-0.8 3.5-22.3 0.3-22.3 0.2zm15.5-78.4c0-0.5 6.3-31.3 10.8-53.1 1.1-5.1 1.6-9.3 1.2-9.3-0.5 0-10.8 11.4-23.1 25.3-12.2 13.8-24.4 27.5-27.1 30.4-2.6 2.8-4.8 5.7-4.8 6.2 0 0.8 7 1.1 21.5 1.1 11.8 0 21.5-0.3 21.5-0.6z"/>
	</g>
	<g>
		<path class="s1" d="m323.5 486.1c-9.8-2.4-18.9-7.4-24.9-13.4-2.8-2.9-8.9-11-13.6-18.2-4.7-7.1-14.9-22.6-22.8-34.5-7.9-11.8-12.4-19.3-10-16.5 32 37.1 41.2 45.4 57.5 51.2 7.4 2.7 8.7 2.8 25 2.8 9.5 0 17.3 0.3 17.3 0.8 0 0.8 15.4 24.3 17.6 26.8 0.8 0.9 1.1 1.9 0.7 2.2-0.3 0.4-9.4 0.7-20.2 0.6-15.1 0-21.2-0.4-26.6-1.8z"/>
	</g>
</svg>