<svg xmlns="http://www.w3.org/2000/svg" viewBox="0 0 24 24" fill="none">
  <path
    d="M10.04 5.32 10.69 6.48c.59 1.05.35 2.43-.58 3.35 0 0 0 0-.01.01-.01.01-1.12 1.12.91 3.15 2.04 2.03 3.16.92 3.16.92s0 0 .01-.01c.92-.92 2.3-1.16 3.35-.57l1.16.65c1.59.88 1.79 3.1.4 4.5-.84.84-1.87 1.47-3 1.52-1.9.07-5.14-.41-8.38-3.63C4.45 13.14 3.97 9.9 4.03 8c.05-1.12.69-2.16 1.53-3 .07-.08.14-.14.21-.21 1.38-1.33 3.57-1.15 4.27.53Z"
    fill="#ffffff"
  />
  <path
    d="M13.26 1.88c.06-.41.45-.69.86-.63.03 0 .09.01.13.02.09.02.21.05.35.09.3.09.72.24 1.22.48.98.46 2.32 1.27 3.71 2.7 1.39 1.39 2.2 2.73 2.67 3.71.24.5.39.92.47 1.22.04.14.06.26.08.35.01.05.02.09.02.13.07.41-.21.8-.62.86-.41.07-.8-.21-.87-.62a3 3 0 0 0-.03-.13 7 7 0 0 0-.13-.45c-.08-.21-.19-.48-.34-.8-.36-.77-1.03-1.9-2.2-3.08-1.18-1.18-2.31-1.85-3.08-2.21-.32-.15-.59-.26-.8-.34-.12-.05-.22-.08-.3-.1-.41-.07-.69-.46-.63-.87Z"
    fill="#ffffff"
  />
  <path
    d="M13.49 5.33c.11-.4.52-.64.92-.52l.22.07c.16.05.37.13.62.26.46.23 1.05.58 1.77 1.31.72.72 1.08 1.31 1.31 1.77.13.24.21.45.26.62.03.1.05.17.06.21.12.4-.11.82-.51.93a.74.74 0 0 1-.92-.5 4 4 0 0 0-.05-.14c-.05-.13-.14-.33-.28-.58-.21-.36-.53-.84-1.17-1.48-.64-.64-1.12-.96-1.48-1.17-.25-.14-.45-.23-.58-.28a2 2 0 0 0-.14-.05.73.73 0 0 1-.49-.93Z"
    fill="#ffffff"
  />
</svg>
