<?xml version="1.0" encoding="UTF-8"?>
<!DOCTYPE svg PUBLIC "-//W3C//DTD SVG 1.1//EN" "http://www.w3.org/Graphics/SVG/1.1/DTD/svg11.dtd">
<svg xmlns="http://www.w3.org/2000/svg" version="1.1" width="200px" height="200px" style="shape-rendering:geometricPrecision; text-rendering:geometricPrecision; image-rendering:optimizeQuality; fill-rule:evenodd; clip-rule:evenodd" xmlns:xlink="http://www.w3.org/1999/xlink">
<g><path style="opacity:1" fill="#fefefe" d="M -0.5,-0.5 C 66.1667,-0.5 132.833,-0.5 199.5,-0.5C 199.5,66.1667 199.5,132.833 199.5,199.5C 132.833,199.5 66.1667,199.5 -0.5,199.5C -0.5,132.833 -0.5,66.1667 -0.5,-0.5 Z"/></g>
<g><path style="opacity:1" fill="#eaca6d" d="M 105.5,47.5 C 103.578,45.7097 101.245,44.7097 98.5,44.5C 93.8367,45.2614 89.17,45.9281 84.5,46.5C 90.7867,43.7152 97.4534,42.8818 104.5,44C 105.337,45.0113 105.67,46.1779 105.5,47.5 Z"/></g>
<g><path style="opacity:1" fill="#f3bb43" d="M 105.5,47.5 C 114.529,68.0273 123.195,88.8606 131.5,110C 131.167,110.5 130.833,111 130.5,111.5C 109.162,93.5146 87.162,76.5146 64.5,60.5C 63.1667,59.1667 63.1667,57.8333 64.5,56.5C 70.3218,51.45 76.9885,48.1167 84.5,46.5C 89.17,45.9281 93.8367,45.2614 98.5,44.5C 101.245,44.7097 103.578,45.7097 105.5,47.5 Z"/></g>
<g><path style="opacity:1" fill="#4fa647" d="M 129.5,53.5 C 148.283,66.4066 155.45,84.0732 151,106.5C 143.729,88.8495 136.563,71.1828 129.5,53.5 Z"/></g>
<g><path style="opacity:1" fill="#578ee5" d="M 53.5,101.5 C 51.461,100.089 50.461,98.089 50.5,95.5C 48.8762,95.6399 47.7096,94.9733 47,93.5C 46.6117,98.5107 46.7784,103.511 47.5,108.5C 45.0671,101.018 44.9005,93.3516 47,85.5C 49.6618,90.6568 51.8285,95.9901 53.5,101.5 Z"/></g>
<g><path style="opacity:1" fill="#3f85f0" d="M 53.5,101.5 C 59.5309,114.551 64.6976,127.885 69,141.5C 57.1728,133.512 50.0061,122.512 47.5,108.5C 46.7784,103.511 46.6117,98.5107 47,93.5C 47.7096,94.9733 48.8762,95.6399 50.5,95.5C 50.461,98.089 51.461,100.089 53.5,101.5 Z"/></g>
<g><path style="opacity:1" fill="#e83d2f" d="M 111.5,149.5 C 105.862,150.22 100.196,150.553 94.5,150.5C 85.3502,128.195 76.1835,105.862 67,83.5C 88.4502,101.788 110.617,119.121 133.5,135.5C 134.833,136.5 134.833,137.5 133.5,138.5C 127.013,143.744 119.679,147.41 111.5,149.5 Z"/></g>
<g><path style="opacity:1" fill="#fcc6bc" d="M 111.5,149.5 C 108.282,150.954 104.782,151.621 101,151.5C 98.6392,151.496 96.4726,151.163 94.5,150.5C 100.196,150.553 105.862,150.22 111.5,149.5 Z"/></g>
</svg>
