<?xml version="1.0" encoding="UTF-8"?>
<!DOCTYPE svg PUBLIC "-//W3C//DTD SVG 1.1//EN" "http://www.w3.org/Graphics/SVG/1.1/DTD/svg11.dtd">
<svg xmlns="http://www.w3.org/2000/svg" version="1.1" width="200px" height="200px" style="shape-rendering:geometricPrecision; text-rendering:geometricPrecision; image-rendering:optimizeQuality; fill-rule:evenodd; clip-rule:evenodd" xmlns:xlink="http://www.w3.org/1999/xlink">
<g><path style="opacity:1" fill="#fefefe" d="M -0.5,-0.5 C 66.1667,-0.5 132.833,-0.5 199.5,-0.5C 199.5,66.1667 199.5,132.833 199.5,199.5C 132.833,199.5 66.1667,199.5 -0.5,199.5C -0.5,132.833 -0.5,66.1667 -0.5,-0.5 Z"/></g>
<g><path style="opacity:1" fill="#fab0bd" d="M 140.5,65.5 C 116.328,65.1691 92.3275,65.5024 68.5,66.5C 67.8333,66.5 67.1667,66.5 66.5,66.5C 78.4814,65.1676 90.8148,64.5009 103.5,64.5C 116.005,64.5001 128.338,64.8334 140.5,65.5 Z"/></g>
<g><path style="opacity:1" fill="#ed9aa8" d="M 140.5,65.5 C 142.5,65.5 143.5,66.5 143.5,68.5C 142.167,67.8333 141.167,66.8333 140.5,65.5 Z"/></g>
<g><path style="opacity:1" fill="#e30334" d="M 140.5,65.5 C 141.167,66.8333 142.167,67.8333 143.5,68.5C 144.167,68.5 144.5,68.8333 144.5,69.5C 144.807,87.88 144.474,106.213 143.5,124.5C 142.508,124.328 141.842,124.662 141.5,125.5C 130.5,125.5 119.5,125.5 108.5,125.5C 108.827,115.319 108.494,105.319 107.5,95.5C 107.158,94.6618 106.492,94.3284 105.5,94.5C 105.5,94.1667 105.5,93.8333 105.5,93.5C 92.6774,92.5045 79.6774,92.1712 66.5,92.5C 66.3336,84.4931 66.5003,76.4931 67,68.5C 67.7172,67.9558 68.2172,67.2891 68.5,66.5C 92.3275,65.5024 116.328,65.1691 140.5,65.5 Z"/></g>
<g><path style="opacity:1" fill="#fea7bd" d="M 144.5,69.5 C 145.166,78.4938 145.5,87.6605 145.5,97C 145.498,106.525 144.832,115.692 143.5,124.5C 144.474,106.213 144.807,87.88 144.5,69.5 Z"/></g>
<g><path style="opacity:1" fill="#df305c" d="M 66.5,66.5 C 67.1667,66.5 67.8333,66.5 68.5,66.5C 68.2172,67.2891 67.7172,67.9558 67,68.5C 66.5003,76.4931 66.3336,84.4931 66.5,92.5C 79.6774,92.1712 92.6774,92.5045 105.5,93.5C 92.1667,93.5 78.8333,93.5 65.5,93.5C 65.1956,84.4161 65.5289,75.4161 66.5,66.5 Z"/></g>
<g><path style="opacity:1" fill="#aecff9" d="M 100.5,99.5 C 86.1667,99.5 71.8333,99.5 57.5,99.5C 56.8333,99.5 56.1667,99.5 55.5,99.5C 62.6356,98.1692 70.1356,97.5025 78,97.5C 85.8644,97.5025 93.3644,98.1692 100.5,99.5 Z"/></g>
<g><path style="opacity:1" fill="#2186ef" d="M 55.5,99.5 C 56.1667,99.5 56.8333,99.5 57.5,99.5C 57.5,100.5 57.5,101.5 57.5,102.5C 70.1711,102.333 82.8377,102.5 95.5,103C 97.7843,104.363 97.951,105.863 96,107.5C 95.5172,106.552 95.3505,105.552 95.5,104.5C 82.424,104.651 69.424,104.651 56.5,104.5C 56.1692,112.196 56.5025,119.862 57.5,127.5C 58.1876,121.948 58.8543,116.448 59.5,111C 56.6677,109.092 57.001,108.259 60.5,108.5C 60.3089,116.201 60.6423,123.868 61.5,131.5C 74.1968,131.754 86.8635,131.421 99.5,130.5C 99.5,131.833 99.5,133.167 99.5,134.5C 85.496,134.667 71.496,134.5 57.5,134C 57,133.5 56.5,133 56,132.5C 55.5002,121.505 55.3335,110.505 55.5,99.5 Z"/></g>
<g><path style="opacity:1" fill="#1b83f2" d="M 57.5,99.5 C 71.8333,99.5 86.1667,99.5 100.5,99.5C 100.828,110.014 100.494,120.347 99.5,130.5C 86.8635,131.421 74.1968,131.754 61.5,131.5C 60.6423,123.868 60.3089,116.201 60.5,108.5C 57.001,108.259 56.6677,109.092 59.5,111C 58.8543,116.448 58.1876,121.948 57.5,127.5C 56.5025,119.862 56.1692,112.196 56.5,104.5C 69.424,104.651 82.424,104.651 95.5,104.5C 95.3505,105.552 95.5172,106.552 96,107.5C 97.951,105.863 97.7843,104.363 95.5,103C 82.8377,102.5 70.1711,102.333 57.5,102.5C 57.5,101.5 57.5,100.5 57.5,99.5 Z"/></g>
<g><path style="opacity:1" fill="#ffc7d7" d="M 105.5,94.5 C 106.492,94.3284 107.158,94.6618 107.5,95.5C 107.5,105.5 107.5,115.5 107.5,125.5C 106.811,115.265 106.145,104.932 105.5,94.5 Z"/></g>
<g><path style="opacity:1" fill="#559ce9" d="M 100.5,99.5 C 101.829,104.792 102.496,110.458 102.5,116.5C 102.167,122.167 101.833,127.833 101.5,133.5C 100.817,133.863 100.15,134.196 99.5,134.5C 99.5,133.167 99.5,131.833 99.5,130.5C 100.494,120.347 100.828,110.014 100.5,99.5 Z"/></g>
<g><path style="opacity:1" fill="#df5876" d="M 107.5,95.5 C 108.494,105.319 108.827,115.319 108.5,125.5C 119.5,125.5 130.5,125.5 141.5,125.5C 141.5,125.833 141.5,126.167 141.5,126.5C 129.988,126.828 118.654,126.495 107.5,125.5C 107.5,115.5 107.5,105.5 107.5,95.5 Z"/></g>
<g><path style="opacity:1" fill="#ffb6c6" d="M 143.5,124.5 C 143.5,125.833 142.833,126.5 141.5,126.5C 141.5,126.167 141.5,125.833 141.5,125.5C 141.842,124.662 142.508,124.328 143.5,124.5 Z"/></g>
<g><path style="opacity:1" fill="#5f9de4" d="M 55.5,99.5 C 55.3335,110.505 55.5002,121.505 56,132.5C 56.5,133 57,133.5 57.5,134C 71.496,134.5 85.496,134.667 99.5,134.5C 84.9946,135.826 70.3279,135.826 55.5,134.5C 54.1787,122.706 54.1787,111.039 55.5,99.5 Z"/></g>
</svg>
