<?xml version="1.0" encoding="UTF-8"?>
<!DOCTYPE svg PUBLIC "-//W3C//DTD SVG 1.1//EN" "http://www.w3.org/Graphics/SVG/1.1/DTD/svg11.dtd">
<svg xmlns="http://www.w3.org/2000/svg" version="1.1" width="200px" height="200px" style="shape-rendering:geometricPrecision; text-rendering:geometricPrecision; image-rendering:optimizeQuality; fill-rule:evenodd; clip-rule:evenodd" xmlns:xlink="http://www.w3.org/1999/xlink">
<g><path style="opacity:1" fill="#fdfefe" d="M -0.5,-0.5 C 66.1667,-0.5 132.833,-0.5 199.5,-0.5C 199.5,11.1667 199.5,22.8333 199.5,34.5C 195.671,33.931 192.337,34.5977 189.5,36.5C 184.427,38.0491 180.26,41.0491 177,45.5C 174.266,53.0028 172.099,60.6695 170.5,68.5C 161.5,68.5 152.5,68.5 143.5,68.5C 141.365,65.1929 140.365,61.5263 140.5,57.5C 143.295,43.5239 145.962,29.5239 148.5,15.5C 113.832,15.3333 79.1651,15.5 44.5,16C 36.8821,17.6139 31.7155,22.1139 29,29.5C 19.4905,72.8672 9.99047,116.201 0.5,159.5C 0.166667,159.5 -0.166667,159.5 -0.5,159.5C -0.5,106.167 -0.5,52.8333 -0.5,-0.5 Z"/></g>
<g><path style="opacity:1" fill="#0c2f44" d="M 140.5,57.5 C 139.388,59.5994 138.721,61.9327 138.5,64.5C 132.167,64.5 125.833,64.5 119.5,64.5C 119.5,63.1667 119.5,61.8333 119.5,60.5C 121.636,52.2843 123.303,43.9509 124.5,35.5C 100.077,35.0196 75.7434,35.5196 51.5,37C 48.5332,39.1005 46.6998,41.9338 46,45.5C 41.6416,64.7919 37.4749,84.1253 33.5,103.5C 32.5489,104.919 32.2155,106.585 32.5,108.5C 55.6727,108.831 78.6727,108.498 101.5,107.5C 104.505,107.747 107.005,106.747 109,104.5C 109.993,101.526 110.826,98.5259 111.5,95.5C 117.833,95.5 124.167,95.5 130.5,95.5C 130.5,96.5 130.5,97.5 130.5,98.5C 129.452,106.478 127.285,114.145 124,121.5C 120.863,123.986 117.363,125.819 113.5,127C 84.8353,127.5 56.1686,127.667 27.5,127.5C 26.4484,136.15 24.2817,144.483 21,152.5C 17.1796,157.665 12.013,160.665 5.5,161.5C 3.21879,161.923 1.55213,161.256 0.5,159.5C 9.99047,116.201 19.4905,72.8672 29,29.5C 31.7155,22.1139 36.8821,17.6139 44.5,16C 79.1651,15.5 113.832,15.3333 148.5,15.5C 145.962,29.5239 143.295,43.5239 140.5,57.5 Z"/></g>
<g><path style="opacity:1" fill="#fbfdfd" d="M 199.5,34.5 C 199.5,89.5 199.5,144.5 199.5,199.5C 132.833,199.5 66.1667,199.5 -0.5,199.5C -0.5,187.167 -0.5,174.833 -0.5,162.5C 1.73535,162.795 3.73535,162.461 5.5,161.5C 12.013,160.665 17.1796,157.665 21,152.5C 24.2817,144.483 26.4484,136.15 27.5,127.5C 56.1686,127.667 84.8353,127.5 113.5,127C 117.363,125.819 120.863,123.986 124,121.5C 127.285,114.145 129.452,106.478 130.5,98.5C 131.434,97.4324 131.768,96.099 131.5,94.5C 124.646,94.176 117.979,94.5093 111.5,95.5C 110.826,98.5259 109.993,101.526 109,104.5C 107.005,106.747 104.505,107.747 101.5,107.5C 78.8333,107.5 56.1667,107.5 33.5,107.5C 33.5,106.167 33.5,104.833 33.5,103.5C 37.4749,84.1253 41.6416,64.7919 46,45.5C 46.6998,41.9338 48.5332,39.1005 51.5,37C 75.7434,35.5196 100.077,35.0196 124.5,35.5C 123.303,43.9509 121.636,52.2843 119.5,60.5C 118.549,61.9187 118.216,63.5853 118.5,65.5C 125.354,65.824 132.021,65.4907 138.5,64.5C 138.721,61.9327 139.388,59.5994 140.5,57.5C 140.365,61.5263 141.365,65.1929 143.5,68.5C 124.164,68.3334 104.83,68.5 85.5,69C 84.944,69.3826 84.6107,69.8826 84.5,70.5C 79.3675,72.1287 75.2009,75.1287 72,79.5C 69.7011,87.0258 68.2011,94.6924 67.5,102.5C 74.1667,102.5 80.8333,102.5 87.5,102.5C 86.6991,96.4902 89.0324,92.3236 94.5,90C 118.164,89.5 141.831,89.3334 165.5,89.5C 161.542,110.234 157.042,130.901 152,151.5C 151.451,156.927 148.618,160.26 143.5,161.5C 120.142,162.156 97.1424,161.49 74.5,159.5C 76.2928,150.535 77.9595,141.535 79.5,132.5C 72.8333,132.5 66.1667,132.5 59.5,132.5C 56.0598,148.807 52.7264,165.14 49.5,181.5C 85.1682,181.667 120.835,181.5 156.5,181C 162.641,178.859 166.807,174.693 169,168.5C 178.998,124.178 188.831,79.8447 198.5,35.5C 195.43,35.3677 192.43,35.701 189.5,36.5C 192.337,34.5977 195.671,33.931 199.5,34.5 Z"/></g>
<g><path style="opacity:1" fill="#5f7883" d="M 119.5,60.5 C 119.5,61.8333 119.5,63.1667 119.5,64.5C 125.833,64.5 132.167,64.5 138.5,64.5C 132.021,65.4907 125.354,65.824 118.5,65.5C 118.216,63.5853 118.549,61.9187 119.5,60.5 Z"/></g>
<g><path style="opacity:1" fill="#d6f3ec" d="M 143.5,68.5 C 152.5,68.5 161.5,68.5 170.5,68.5C 141.961,69.1825 113.294,69.8491 84.5,70.5C 84.6107,69.8826 84.944,69.3826 85.5,69C 104.83,68.5 124.164,68.3334 143.5,68.5 Z"/></g>
<g><path style="opacity:1" fill="#80959f" d="M 33.5,103.5 C 33.5,104.833 33.5,106.167 33.5,107.5C 56.1667,107.5 78.8333,107.5 101.5,107.5C 78.6727,108.498 55.6727,108.831 32.5,108.5C 32.2155,106.585 32.5489,104.919 33.5,103.5 Z"/></g>
<g><path style="opacity:1" fill="#47ab91" d="M 74.5,159.5 C 73.596,160.209 73.2627,161.209 73.5,162.5C 97.006,162.831 120.339,162.498 143.5,161.5C 148.618,160.26 151.451,156.927 152,151.5C 157.042,130.901 161.542,110.234 165.5,89.5C 141.831,89.3334 118.164,89.5 94.5,90C 89.0324,92.3236 86.6991,96.4902 87.5,102.5C 80.8333,102.5 74.1667,102.5 67.5,102.5C 68.2011,94.6924 69.7011,87.0258 72,79.5C 75.2009,75.1287 79.3675,72.1287 84.5,70.5C 113.294,69.8491 141.961,69.1825 170.5,68.5C 172.099,60.6695 174.266,53.0028 177,45.5C 180.26,41.0491 184.427,38.0491 189.5,36.5C 192.43,35.701 195.43,35.3677 198.5,35.5C 188.831,79.8447 178.998,124.178 169,168.5C 166.807,174.693 162.641,178.859 156.5,181C 120.835,181.5 85.1682,181.667 49.5,181.5C 52.7264,165.14 56.0598,148.807 59.5,132.5C 66.1667,132.5 72.8333,132.5 79.5,132.5C 77.9595,141.535 76.2928,150.535 74.5,159.5 Z"/></g>
<g><path style="opacity:1" fill="#5e6e77" d="M 111.5,95.5 C 117.979,94.5093 124.646,94.176 131.5,94.5C 131.768,96.099 131.434,97.4324 130.5,98.5C 130.5,97.5 130.5,96.5 130.5,95.5C 124.167,95.5 117.833,95.5 111.5,95.5 Z"/></g>
<g><path style="opacity:1" fill="#637986" d="M -0.5,159.5 C -0.166667,159.5 0.166667,159.5 0.5,159.5C 1.55213,161.256 3.21879,161.923 5.5,161.5C 3.73535,162.461 1.73535,162.795 -0.5,162.5C -0.5,161.5 -0.5,160.5 -0.5,159.5 Z"/></g>
<g><path style="opacity:1" fill="#96d4c3" d="M 74.5,159.5 C 97.1424,161.49 120.142,162.156 143.5,161.5C 120.339,162.498 97.006,162.831 73.5,162.5C 73.2627,161.209 73.596,160.209 74.5,159.5 Z"/></g>
</svg>
