<?xml version="1.0" encoding="UTF-8"?>
<!DOCTYPE svg PUBLIC "-//W3C//DTD SVG 1.1//EN" "http://www.w3.org/Graphics/SVG/1.1/DTD/svg11.dtd">
<svg xmlns="http://www.w3.org/2000/svg" version="1.1" width="200px" height="200px" style="shape-rendering:geometricPrecision; text-rendering:geometricPrecision; image-rendering:optimizeQuality; fill-rule:evenodd; clip-rule:evenodd" xmlns:xlink="http://www.w3.org/1999/xlink">
<g><path style="opacity:1" fill="#f3f8e2" d="M -0.5,-0.5 C 65.8333,-0.5 132.167,-0.5 198.5,-0.5C 198.5,65.8333 198.5,132.167 198.5,198.5C 132.167,198.5 65.8333,198.5 -0.5,198.5C -0.5,132.167 -0.5,65.8333 -0.5,-0.5 Z"/></g>
<g><path style="opacity:1" fill="#0c0c0b" d="M 96.5,71.5 C 99.5,71.5 102.5,71.5 105.5,71.5C 105.5,75.5 105.5,79.5 105.5,83.5C 116.505,83.3335 127.505,83.5002 138.5,84C 140.081,84.7065 141.581,85.5399 143,86.5C 144.613,96.0661 144.947,105.733 144,115.5C 143.215,117.286 142.049,118.786 140.5,120C 126.833,120.667 113.167,120.667 99.5,120C 98.2125,118.59 97.0458,117.09 96,115.5C 95.1847,100.759 95.3513,86.0921 96.5,71.5 Z"/></g>
<g><path style="opacity:1" fill="#0b0b0a" d="M 47.5,83.5 C 59.8378,83.3335 72.1712,83.5001 84.5,84C 86.286,84.7845 87.786,85.9512 89,87.5C 90.6334,102.407 90.9668,117.407 90,132.5C 86.9433,133.451 83.7766,133.784 80.5,133.5C 80.5,129.167 80.5,124.833 80.5,120.5C 68.8286,120.667 57.1619,120.5 45.5,120C 44.6667,119.167 43.8333,118.333 43,117.5C 41.3866,107.934 41.0532,98.2672 42,88.5C 43.4055,86.2563 45.2389,84.5897 47.5,83.5 Z"/></g>
<g><path style="opacity:1" fill="#5c6051" d="M 156.5,86.5 C 155.167,88.1667 155.167,89.8333 156.5,91.5C 156.44,92.0431 156.107,92.3764 155.5,92.5C 154.692,90.5767 154.192,88.5767 154,86.5C 152.129,87.9973 151.129,89.9973 151,92.5C 150.788,90.2199 149.955,88.2199 148.5,86.5C 151.309,85.1997 153.976,85.1997 156.5,86.5 Z"/></g>
<g><path style="opacity:1" fill="#282b20" d="M 156.5,91.5 C 155.167,89.8333 155.167,88.1667 156.5,86.5C 157.222,86.9175 157.722,87.5842 158,88.5C 159.993,84.4729 161.16,84.6396 161.5,89C 161.078,93.3311 160.245,93.4977 159,89.5C 158.333,90.8333 157.667,90.8333 157,89.5C 156.536,90.0944 156.369,90.7611 156.5,91.5 Z"/></g>
<g><path style="opacity:1" fill="#ecf0dc" d="M 52.5,92.5 C 61.1731,92.3336 69.8397,92.5002 78.5,93C 79,93.5 79.5,94 80,94.5C 80.4995,100.491 80.6662,106.491 80.5,112.5C 71.1607,112.666 61.8274,112.5 52.5,112C 51.1852,105.5 51.1852,99.0003 52.5,92.5 Z"/></g>
<g><path style="opacity:1" fill="#eff4e0" d="M 133.5,93.5 C 134.826,99.5678 134.826,105.734 133.5,112C 124.833,112.667 116.167,112.667 107.5,112C 106.944,111.617 106.611,111.117 106.5,110.5C 106.5,104.833 106.5,99.1667 106.5,93.5C 115.5,93.5 124.5,93.5 133.5,93.5 Z"/></g>
<g><path style="opacity:1" fill="#b9bcaf" d="M 133.5,93.5 C 124.5,93.5 115.5,93.5 106.5,93.5C 106.5,99.1667 106.5,104.833 106.5,110.5C 105.51,104.69 105.177,98.69 105.5,92.5C 115.015,92.1731 124.348,92.5064 133.5,93.5 Z"/></g>
<g><path style="opacity:1" fill="#d4d9c3" d="M 198.5,-0.5 C 198.833,-0.5 199.167,-0.5 199.5,-0.5C 199.5,66.1667 199.5,132.833 199.5,199.5C 132.833,199.5 66.1667,199.5 -0.5,199.5C -0.5,199.167 -0.5,198.833 -0.5,198.5C 65.8333,198.5 132.167,198.5 198.5,198.5C 198.5,132.167 198.5,65.8333 198.5,-0.5 Z"/></g>
</svg>
